<?xml version="1.0" encoding="UTF-8" standalone="no"?>
<!-- Created with Inkscape (http://www.inkscape.org/) -->

<svg
   version="1.1"
   id="svg1"
   width="900"
   height="735.39056"
   viewBox="0 0 899.99995 735.39057"
   xmlns="http://www.w3.org/2000/svg"
   xmlns:svg="http://www.w3.org/2000/svg">
  <defs
     id="defs1" />
  <g
     id="g1"
     transform="matrix(1.0065994,0,0,1.0065994,-504.36455,60.213026)">
    <path
       id="path5"
       d="m 987.18931,234.95335 c 0,-153.410665 124.36399,-277.771996 277.77329,-277.771996 153.4107,0 277.7707,124.361331 277.7707,277.771996 0,153.40933 -124.36,277.77199 -277.7707,277.77199 -153.4093,0 -277.77329,-124.36266 -277.77329,-277.77199"
       style="fill:#dcefeb;fill-opacity:1;fill-rule:nonzero;stroke:none;stroke-width:0.133333" />
    <path
       id="path6"
       d="m 1358.0266,207.71735 c 0,0 -14.4933,0.35333 -24.0266,-7.77467 -9.5454,-8.128 -12.02,-13.428 -22.976,-13.78133 -10.9534,-0.35467 -17.3147,2.12 -21.556,3.18 -4.2387,1.06 -14.1347,-0.35333 -16.9614,4.59467 -2.8266,4.94666 2.1387,3.53733 -11.476,13.78266 -13.6146,10.24667 -19.268,14.13333 -20.328,21.908 -1.06,7.77467 2.4734,19.78933 0,22.616 -2.4733,2.828 -12.368,7.068 -2.8266,16.96267 9.54,9.89466 16.608,13.70133 19.4346,19.21866 2.8267,5.51734 5.6547,15.412 14.136,16.11867 8.4814,0.70667 23.3227,-2.47333 32.864,-2.12 9.5427,0.35333 14.8427,2.47333 16.9627,7.77467 2.12,5.3 2.8267,10.248 7.068,15.548 4.24,5.30133 9.5387,29.68533 8.832,34.98533 -0.7067,5.30133 -7.772,11.308 -5.2987,19.08266 2.472,7.77467 11.6587,16.25467 11.6587,21.20267 0,4.94667 -3.5333,13.076 0,16.96267 3.5333,3.88666 20.4933,12.01466 21.9067,2.47333 1.4133,-9.54133 -3.88,-13.78267 2.12,-18.376 6.0133,-4.59333 22.2666,-7.42 26.16,-16.96267 3.88,-9.54133 6,-12.01466 12.72,-20.848 6.7066,-8.83466 15.5466,-8.128 13.0666,-19.79066 -2.4666,-11.66133 -7.0666,-20.14267 -1.76,-25.796 5.3067,-5.65467 22.2667,-9.89467 26.1467,-20.14267 3.8933,-10.248 2.48,-24.736 2.12,-25.79733 -0.3467,-1.06 -3.5333,-2.47333 -12.0133,-6.36 -8.48,-3.888 -21.56,-11.66133 -22.6134,-19.08267 -1.0666,-7.42133 -6.72,-12.72133 -8.1333,-18.02266 -1.4133,-5.30134 -7.4133,-16.25467 -7.4133,-16.25467 0,0 2.8266,-8.48267 -2.8267,-11.66267 -5.6533,-3.17999 -22.2667,-5.30133 -25.8,-1.06 -3.5333,4.24 -9.1867,7.42134 -9.1867,7.42134"
       style="fill:#7bbfb4;fill-opacity:1;fill-rule:nonzero;stroke:none;stroke-width:0.133333" />
    <path
       id="path7"
       d="m 1074.9666,252.24268 c 0,0 10.9547,6.71467 20.4974,9.89467 9.5413,3.18133 13.78,12.01466 13.78,13.428 0,1.41466 1.4146,12.64133 0,12.85866 -1.412,0.21734 -12.3667,-5.084 -14.1334,-8.97066 -1.7666,-3.888 0.7054,-6.92534 -5.3013,-9.11734 -6.008,-2.19066 -12.368,-6.07866 -13.428,-7.13866 -1.0613,-1.06 -5.3013,-6.71334 -1.4147,-10.95467"
       style="fill:#f8b3ff;fill-opacity:1;fill-rule:nonzero;stroke:none;stroke-width:0.133333" />
    <path
       id="path8"
       d="m 1232.2213,69.192018 c 0,0 19.7893,-4.24 22.9693,0 3.18,4.241333 -0.3586,11.661333 -4.596,11.661333 -4.2386,0 -9.1853,-0.706666 -12.0133,4.594667 -2.8267,5.3 2.828,9.894666 -6.36,12.013333 -9.188,2.121333 -13.7813,3.535999 -14.136,0 -0.352,-3.533333 -1.06,-12.130666 4.948,-15.077333 6.008,-2.944 9.188,-13.192 9.188,-13.192"
       style="fill:#7bbfb4;fill-opacity:1;fill-rule:nonzero;stroke:none;stroke-width:0.133333" />
    <path
       id="path9"
       d="m 1290.0586,5.5840199 c 0,0 22.144,-3.7693333 24.5,1.8853332 2.356,5.6533329 -0.9413,11.3066669 -2.8266,14.1346659 -1.884,2.826667 -13.664,-3.298666 -13.664,-3.298666 0,0 -11.7787,-4.241333 -17.4347,0.470667 -5.6533,4.711999 -6.124,-17.4333334 9.4253,-13.1920001"
       style="fill:#7bbfb4;fill-opacity:1;fill-rule:nonzero;stroke:none;stroke-width:0.133333" />
    <path
       id="path10"
       d="m 1025.9546,93.370684 c 2.6187,5.745334 5.5467,10.665336 5.5467,11.511996 0,1.76667 -7.4213,21.91067 -12.3693,31.45067 -4.9454,9.54267 -5.2987,46.64667 -6.0054,47.708 -0.708,1.06 0.352,26.856 3.5334,39.93066 3.18,13.076 6.7133,6.008 6.3613,13.78267 -0.3533,7.77333 4.24,22.26267 12.368,29.684 8.128,7.42 13.7813,0 14.8413,0 1.0614,0 1.0614,10.248 1.0614,15.90133 0,5.65467 9.54,10.95467 16.608,18.72934 7.0666,7.77466 7.7746,8.48133 6.36,17.316 -1.412,8.83466 -4.5934,25.44399 -6.008,32.86399 -1.412,7.42134 2.1213,10.60134 8.4826,19.436 6.36,8.83467 7.7747,9.188 22.6174,16.256 14.84,7.06667 6.7133,12.01467 17.9666,21.90934 11.2534,9.89466 2.1747,12.01466 3.9414,19.08266 1.7666,7.06667 4.5946,13.428 16.9626,22.96934 12.368,9.54 19.7894,25.79733 26.504,31.80399 6.7134,6.008 10.2467,-1.76666 2.8267,-5.65466 -7.4213,-3.88667 -15.9027,-21.556 -16.6093,-27.56267 -0.7067,-6.00666 3.5333,-5.65466 7.7746,-7.77333 4.2414,-2.12133 2.8267,-8.48267 4.5934,-17.79867 1.7666,-9.31466 8.8346,-5.52666 15.196,-6.58666 6.36,-1.05867 7.7746,-12.368 9.1866,-16.608 1.4147,-4.24 -0.7053,-13.42934 4.2414,-15.90134 4.948,-2.47466 0.7066,-16.256 0,-19.084 -0.7067,-2.82666 -7.42,-8.83333 -19.436,-9.89466 -12.0147,-1.06 -9.8947,-1.06 -20.1427,-6.71334 -10.248,-5.65466 -12.368,-8.83466 -12.368,-12.368 0,-3.53466 -18.0227,-12.72266 -28.976,-22.61733 -10.956,-9.89466 -13.076,-6.36 -17.3173,-6.71333 -4.24,-0.35333 -14.488,-7.42133 -21.2027,-13.42933 -6.7133,-6.00667 -8.8347,-7.06667 -12.3667,-15.548 -3.536,-8.48134 2.472,-9.89467 5.2987,-13.78134 2.8267,-3.888 -5.2987,-16.60933 -9.1867,-13.78266 -3.8866,2.828 -6.7146,11.308 -12.3693,2.47333 -4.7053,-7.352 -3.536,-21.804 -3.012,-26.44533 0.1067,-0.93467 0.1853,-1.472 0.1853,-1.472 0,0 0,0 5.3014,-5.3 5.3,-5.3 13.428,1.06 20.496,2.47333 7.068,1.41467 4.24,4.948 3.8866,11.33467 -0.3533,6.38666 7.068,5.98133 9.5414,4.92133 2.4746,-1.06 -1.7667,-12.368 -0.7067,-14.84133 1.06,-2.47467 4.24,-7.77467 4.948,-15.196 0.7067,-7.42134 4.2387,-14.13467 7.42,-18.02267 3.1813,-3.88666 17.3147,-8.12666 25.0907,-10.95466 7.7746,-2.82667 8.4813,-12.72134 12.7226,-21.556 4.2387,-8.83467 13.4267,2.12 15.548,4.24133 2.1187,2.11867 10.9534,7.77333 16.9614,1.06 6.008,-6.71467 -6.008,-19.43733 -9.5414,-23.67733 -3.5333,-4.24 -12.7213,-12.01467 -13.7813,-24.38267 -1.06,-12.368 -13.428,-16.256 -18.0213,-18.375999 -4.596,-2.121333 -5.3014,10.247999 -7.068,21.909329 -1.7667,11.66134 -6.008,24.73734 -12.3694,23.676 -6.36,-1.06 -3.18,-7.77333 -3.18,-11.66133 0,-3.88667 -7.4213,-12.01467 -13.4293,-16.25467 -6.0067,-4.24133 0.3547,-13.076 4.2413,-19.790662 3.8867,-6.713334 8.48,-2.12 16.2547,-3.886667 7.7747,-1.766667 8.8347,-7.066666 12.7213,-18.376 3.888,-11.307999 17.3174,-7.066666 18.024,-5.299999 0.7054,1.766666 -1.0613,11.661333 -4.348,21.909332 -3.2866,10.247996 3.6414,5.3 6.1147,7.421334 2.4733,2.12 8.128,0.706666 13.0747,-1.768 4.948,-2.472 3.5333,-14.488 4.5933,-15.548 1.0613,-1.06 2.4747,-12.368 -4.9467,-22.615999 -7.4213,-10.248 -7.7746,-10.956 -3.888,-12.722667 3.888,-1.765333 10.956,-14.134666 21.204,-21.201333 10.248,-7.067999 14.488,-2.121333 14.488,-2.121333 0,0 5.6547,14.842666 7.4214,18.376 1.7666,3.533333 -4.24,20.495999 -8.8347,25.443999 -4.5933,4.946667 -2.1213,6.36 -4.24,16.608 -2.12,10.249333 0.352,12.015999 8.48,13.427999 8.1293,1.414667 10.6013,15.195996 13.7827,15.549336 3.18,0.35333 4.5933,-15.549336 4.24,-20.142669 -0.3534,-4.593333 13.4293,-20.142666 18.376,-27.210666 4.948,-7.066666 20.496,-10.246666 26.504,-15.194666 6.008,-4.948 0,-18.376 -6.7147,-23.322666 -6.7147,-4.948 -10.248,-14.842667 -12.7213,-20.8613331 -2.4734,-6.0186665 -12.7227,-3.1693333 -21.9094,0 -9.188,3.1693332 -8.8346,0.7186666 -26.1506,2.8373332 -17.316,2.1213333 -8.128,3.5346669 -19.436,-1.4133332 -11.308,-4.94666659 -9.188,4.2413331 -21.2027,8.4813331 -12.016,4.241333 -18.0227,18.729333 -21.9107,17.316 -3.8866,-1.413334 -2.8266,-7.066667 -8.8346,-10.954667 -6.0054,-3.886666 -8.8347,12.721333 -8.8347,17.316 0,4.593333 -18.3747,13.074666 -20.848,8.833333 -1.6387,-2.806667 -3.4947,-7.952 -7.188,-12.125333 -17.9707,17.295999 -33.6107,36.991999 -46.4187,58.567998"
       style="fill:#7bbfb4;fill-opacity:1;fill-rule:nonzero;stroke:none;stroke-width:0.133333" />
    <path
       id="path11"
       d="m 1397.4533,-9.2413131 c 1.3867,10.8306664 4.0133,30.6773321 5.68,38.3839991 2.36,10.836 -8.48,11.778666 -9.4133,16.018666 -0.9467,4.241333 -13.6667,8.010667 -15.5467,13.193333 -1.8933,5.184 -6.6,11.309333 -12.7333,0 -6.12,-11.308 -24.4934,-15.547999 -32.04,-11.778666 -7.5334,3.769333 -2.9387,10.601333 -9.3,16.254666 -6.36,5.654667 -14.1347,10.248 -19.436,15.549333 -5.3014,5.3 -9.54,9.188 -6.0067,15.548 3.5333,6.361332 5.3013,9.896002 12.7213,13.782662 7.42,3.88667 12.7214,14.488 18.3747,8.48 5.66,-6.00666 6.0067,-10.24666 5.3,-17.667996 -0.7067,-7.421333 1.0667,-18.375999 7.0667,-13.074666 6.0133,5.3 8.1333,14.841332 2.8266,21.909332 -5.2933,7.06667 -5.6533,11.308 -10.6,12.72133 -4.9453,1.41334 -14.488,-1.06 -19.0813,0 -4.5933,1.06 -14.1347,7.42134 -15.1947,9.89467 -1.06,2.47467 -4.24,11.308 -8.128,4.24133 -3.8866,-7.068 -12.0146,-18.72933 -12.0146,-24.384 0,-5.65333 -8.1294,-8.128 -9.8947,-2.82666 -1.7667,5.30133 1.7653,10.95466 1.236,12.19066 -0.5293,1.23734 -7.244,4.772 -7.5973,5.30134 -0.3534,0.53066 -1.7067,7.244 1.1786,8.48133 2.8854,1.23733 5.536,-1.59067 9.0694,2.12 3.5346,3.71067 4.2413,11.83867 7.5986,14.13467 3.356,2.29733 6.8907,11.83866 4.7707,13.42933 -2.1213,1.58933 -15.196,3.35733 -18.7293,3.71067 -3.5347,0.35333 -7.7747,-1.41334 -6.1854,5.124 1.5907,6.53733 6.7147,11.66133 9.1894,12.01466 2.472,0.35334 7.9506,6.184 12.368,-0.88266 4.4173,-7.068 7.7733,-9.012 14.3106,-12.72267 6.5387,-3.71067 9.5427,-11.308 17.6694,-9.89467 8.128,1.41334 7.4213,6.36134 13.0746,10.60134 5.6534,4.24133 12.3734,8.128 13.4267,-0.35334 1.0667,-8.48133 4.9467,-5.3 11.3067,0.70667 6.36,6.008 4.24,18.02267 11.6666,18.376 7.4267,0.35333 7.0667,-6.71333 16.6134,-8.48133 9.5333,-1.76667 12.72,-1.76667 16.96,4.94666 4.24,6.716 5.6533,13.076 2.8266,15.54933 -2.8266,2.47334 -0.7066,14.136 6.36,17.316 7.0667,3.18 12.36,20.14267 17.32,25.796 4.9467,5.65467 1.4134,14.136 11.3067,14.136 9.8933,0 12.0133,1.76667 17.3067,-7.068 5.3066,-8.83466 20.1466,-11.66133 15.9066,-18.02266 -4.24,-6.36 -8.1333,-6.36 -15.9066,-13.78134 -7.7734,-7.42133 -17.6667,-10.248 -17.3067,-13.42933 0.3467,-3.18 24.3733,4.948 26.1467,8.83467 1.76,3.888 11.3066,2.47333 18.7333,3.888 7.4133,1.41333 7.7733,2.82666 9.8933,12.72133 2.12,9.89467 8.12,24.73733 9.1867,30.03733 1.0533,5.3 5.6533,15.54934 8.12,9.188 2.48,-6.36133 3.5333,-12.01466 3.1867,-24.736 -0.36,-12.72266 0.3466,-22.97066 4.9466,-26.504 4.5867,-3.53466 4.24,-2.12133 9.1867,4.24 4.9467,6.36134 2.8267,27.21067 2.8267,30.39067 0,3.18133 4.6,11.66133 5.3066,14.48933 0.7067,2.82667 1.4134,10.95467 0,14.13467 -0.4666,1.04933 1.5334,3.016 4.4934,4.27467 3.2266,-16.94267 4.9333,-34.424 4.9333,-52.308 0,-105.43067 -58.7333,-197.141331 -145.28,-244.1946631"
       style="fill:#7bbfb4;fill-opacity:1;fill-rule:nonzero;stroke:none;stroke-width:0.133333" />
    <path
       id="path12"
       d="m 1264.9626,-41.485312 c -152.4293,0 -276.43996,124.00933 -276.43996,276.438662 0,152.42933 124.01066,276.43866 276.43996,276.43866 152.424,0 276.4374,-124.00933 276.4374,-276.43866 0,-152.429332 -124.0134,-276.438662 -276.4374,-276.438662 z m 0,555.543982 c -153.9,0 -279.10662,-125.20666 -279.10662,-279.10532 0,-153.898665 125.20662,-279.105329 279.10662,-279.105329 153.904,0 279.104,125.206664 279.104,279.105329 0,153.89866 -125.2,279.10532 -279.104,279.10532"
       style="fill:#7bbfb4;fill-opacity:1;fill-rule:nonzero;stroke:none;stroke-width:0.133333" />
    <path
       id="path13"
       d="m 1049.5893,486.98801 c 0,0 9.7413,26.49066 -5.8733,44.5 -15.616,18.00786 -35.0347,15.95733 -28.3134,-0.88934 6.7214,-16.848 16.9147,-40.544 11.68,-43.60266 -5.2333,-3.06 -11.448,9.79066 -12.764,20.97333 -1.3146,11.184 -13.1053,33.2692 -32.95596,34.028 -25.26533,0.96667 -44.24933,-38.56933 -34.97733,-49.26267 9.272,-10.692 62.81599,-36.62666 54.98269,-44.30266 -2.95736,-2.89733 -48.26402,29.54533 -57.34669,35.472 -9.08267,5.92666 -25.53067,-13.47734 -34.61333,-31.35467 -8.184,-16.108 -8.52934,-41.756 -2.056,-43.536 6.47333,-1.78133 57.932,11.024 59.21866,6.78 2.12,-7.00266 -44.03866,-10.47066 -61.73466,-16.56533 -20.35334,-7.00667 -28.128,-48.35867 -24.90134,-85.33866 0,0 57.11467,-5.38534 81.85467,5.08533 10.29467,4.356 22.672,55.14933 27.56667,60.87333 4.896,5.724 4.152,-19.56933 -0.59334,-30.58267 -4.74266,-11.016 -12.948,-23.97733 -10.78933,-27.03466 2.15867,-3.05867 30.89069,1.57733 38.18799,11.35466 7.2973,9.77734 -3.968,53.97334 0.9627,58.016 2.78,2.28 7.66,-9.06266 6.18,-18.72533 -1.48,-9.664 -0.116,-33.49733 6.572,-35.77867 11.9666,-4.08133 35.5533,24.848 40.24,34.89067 3.3666,7.21467 -12.1654,29.38 -22.9014,41.76133 -10.736,12.38 -16.4906,17.08 -13.9506,19.72534 3.292,3.42533 31.5466,-30.92267 39.9,-43.39867 8.352,-12.47467 47.1853,42.228 27.644,75.56533 -19.54,33.33867 -51.2187,21.34667 -51.2187,21.34667"
       style="fill:#7bbfb4;fill-opacity:1;fill-rule:nonzero;stroke:none;stroke-width:0.133333" />
    <path
       id="path14"
       d="m 1084.0453,543.68547 c -0.7253,0 -1.4253,-0.39586 -1.78,-1.08546 -0.5227,-1.0172 -53.5173,-102.71467 -162.15466,-192.54133 -0.852,-0.704 -0.97066,-1.964 -0.26666,-2.816 0.704,-0.852 1.96133,-0.97067 2.816,-0.26667 109.30262,90.37467 162.63732,192.77186 163.16262,193.79586 0.5054,0.9828 0.1174,2.18694 -0.864,2.69214 -0.2933,0.15053 -0.604,0.22146 -0.9133,0.22146"
       style="fill:#1f8478;fill-opacity:1;fill-rule:nonzero;stroke:none;stroke-width:0.133333" />
    <path
       id="path15"
       d="m 936.69731,443.91868 c -0.94667,0 -1.788,-0.67467 -1.964,-1.64 -0.2,-1.08667 0.52,-2.128 1.60667,-2.328 l 65.89602,-12.06667 -2.99069,-46.22533 c -0.0707,-1.10267 0.76529,-2.05334 1.86799,-2.12534 1.12,-0.0653 2.0533,0.764 2.1253,1.86667 l 3.104,48.00133 c 0.065,1.012 -0.6386,1.91467 -1.636,2.096 l -67.64529,12.388 c -0.12267,0.0227 -0.244,0.0333 -0.364,0.0333"
       style="fill:#1f8478;fill-opacity:1;fill-rule:nonzero;stroke:none;stroke-width:0.133333" />
    <path
       id="path16"
       d="m 979.11864,502.24534 c -0.604,0 -1.20133,-0.272 -1.59466,-0.79067 -0.668,-0.87866 -0.49734,-2.13333 0.384,-2.80133 l 51.34532,-39.01066 c 0.8813,-0.66934 2.1347,-0.49734 2.8027,0.38266 0.668,0.87867 0.4973,2.13467 -0.3827,2.80267 l -51.34666,39.00933 c -0.36133,0.27467 -0.78666,0.408 -1.208,0.408"
       style="fill:#b375db;fill-opacity:1;fill-rule:nonzero;stroke:none;stroke-width:0.133333" />
    <path
       id="path17"
       d="m 876.91731,548.00001 -164.28533,40.02546 c -1.952,0.47614 -3.69466,-1.32546 -3.15466,-3.2588 l 22.23333,-79.60533 c 0.39067,-1.39733 1.84,-2.21467 3.23866,-1.82533 l 142.052,39.6744 c 2.55733,0.71506 2.496,4.36146 -0.084,4.9896 z M 1064.1853,546.79067 705.48132,444.27334 c -1.99734,-0.57066 -4.07734,0.59334 -4.636,2.59467 l -57.356,205.36013 c -0.77467,2.77602 1.744,5.35208 4.536,4.63697 l 416.10928,-106.5011 c 1.8307,-0.46814 1.8667,-3.05467 0.051,-3.57334"
       style="fill:#7bbfb4;fill-opacity:1;fill-rule:nonzero;stroke:none;stroke-width:0.133333" />
    <path
       id="path18"
       d="m 727.40532,503.19601 -23.11067,82.74666 c -0.64,2.28547 -0.0293,4.66414 1.63067,6.36 1.66,1.69574 4.02666,2.35987 6.324,1.7692 l 166.43599,-42.64373 c 3.62533,-0.92973 4.94133,-3.9896 4.96533,-6.32973 0.0267,-2.33854 -1.224,-5.4276 -4.82933,-6.4344 l -143.324,-40.028 c -1.68533,-0.472 -3.46133,-0.25867 -4.98933,0.60266 -1.52933,0.86267 -2.632,2.26667 -3.10266,3.95734 z m -16.824,93.08786 c -2.26534,0 -4.44,-0.9 -6.084,-2.5812 -2.16667,-2.2136 -2.96267,-5.31626 -2.13067,-8.29853 l 23.11067,-82.7468 v 0 c 0.616,-2.20533 2.05333,-4.03733 4.04666,-5.16133 1.99734,-1.12267 4.31067,-1.39867 6.512,-0.78667 l 143.324,40.02813 c 3.86533,1.07974 6.33333,4.3704 6.29066,8.38227 -0.0427,4.012 -2.58133,7.2496 -6.468,8.24533 l -166.43599,42.64427 c -0.72267,0.18547 -1.448,0.27453 -2.16533,0.27453"
       style="fill:#1f8478;fill-opacity:1;fill-rule:nonzero;stroke:none;stroke-width:0.133333" />
    <path
       id="path19"
       d="m 722.20798,469.44001 -1.92666,-0.54 5.30933,-19.01067 1.928,0.54 -5.31067,19.01067"
       style="fill:#1f8478;fill-opacity:1;fill-rule:nonzero;stroke:none;stroke-width:0.133333" />
    <path
       id="path20"
       d="m 746.20131,476.14134 -1.92666,-0.53867 5.26666,-18.85733 1.92667,0.53867 -5.26667,18.85733"
       style="fill:#1f8478;fill-opacity:1;fill-rule:nonzero;stroke:none;stroke-width:0.133333" />
    <path
       id="path21"
       d="m 770.19598,482.84134 -1.92667,-0.53867 5.22267,-18.70133 1.92667,0.53867 -5.22267,18.70133"
       style="fill:#1f8478;fill-opacity:1;fill-rule:nonzero;stroke:none;stroke-width:0.133333" />
    <path
       id="path22"
       d="m 794.18931,489.54401 -1.92666,-0.54 5.18,-18.548 1.92666,0.54 -5.18,18.548"
       style="fill:#1f8478;fill-opacity:1;fill-rule:nonzero;stroke:none;stroke-width:0.133333" />
    <path
       id="path23"
       d="m 818.18398,496.24401 -1.928,-0.53867 5.13733,-18.39333 1.92667,0.53866 -5.136,18.39334"
       style="fill:#1f8478;fill-opacity:1;fill-rule:nonzero;stroke:none;stroke-width:0.133333" />
    <path
       id="path24"
       d="m 842.17731,502.94534 -1.928,-0.53867 5.09467,-18.24 1.92667,0.54 -5.09334,18.23867"
       style="fill:#b375db;fill-opacity:1;fill-rule:nonzero;stroke:none;stroke-width:0.133333" />
    <path
       id="path25"
       d="m 866.17065,509.64667 -1.928,-0.53866 5.05199,-18.08534 1.92667,0.53867 -5.05066,18.08533"
       style="fill:#b375db;fill-opacity:1;fill-rule:nonzero;stroke:none;stroke-width:0.133333" />
    <path
       id="path26"
       d="m 890.16398,516.34801 -1.92667,-0.53867 5.00667,-17.93067 1.928,0.53867 -5.008,17.93067"
       style="fill:#b375db;fill-opacity:1;fill-rule:nonzero;stroke:none;stroke-width:0.133333" />
    <path
       id="path27"
       d="m 914.15731,523.04934 -1.92667,-0.54 4.964,-17.776 1.928,0.54 -4.96533,17.776"
       style="fill:#b375db;fill-opacity:1;fill-rule:nonzero;stroke:none;stroke-width:0.133333" />
    <path
       id="path28"
       d="m 938.15064,529.75067 -1.92666,-0.53866 4.92133,-17.62267 1.928,0.53867 -4.92267,17.62266"
       style="fill:#b375db;fill-opacity:1;fill-rule:nonzero;stroke:none;stroke-width:0.133333" />
    <path
       id="path29"
       d="m 962.14398,536.45054 -1.92667,-0.53853 4.87867,-17.46667 1.92666,0.54 -4.87866,17.4652"
       style="fill:#b375db;fill-opacity:1;fill-rule:nonzero;stroke:none;stroke-width:0.133333" />
    <path
       id="path30"
       d="m 986.13864,543.15307 -1.92666,-0.53946 4.83466,-17.31227 1.92667,0.53867 -4.83467,17.31306"
       style="fill:#b375db;fill-opacity:1;fill-rule:nonzero;stroke:none;stroke-width:0.133333" />
    <path
       id="path31"
       d="m 1010.132,549.85307 -1.9267,-0.53853 4.792,-17.1572 1.9267,0.53867 -4.792,17.15706"
       style="fill:#b375db;fill-opacity:1;fill-rule:nonzero;stroke:none;stroke-width:0.133333" />
    <path
       id="path32"
       d="m 1034.1266,556.55467 -1.928,-0.53853 4.7494,-17.00413 1.9266,0.54013 -4.748,17.00253"
       style="fill:#b375db;fill-opacity:1;fill-rule:nonzero;stroke:none;stroke-width:0.133333" />
    <path
       id="path33"
       d="m 736.53598,465.03734 -1.92667,-0.54 3.076,-11.01333 1.92667,0.53867 -3.076,11.01466"
       style="fill:#1f8478;fill-opacity:1;fill-rule:nonzero;stroke:none;stroke-width:0.133333" />
    <path
       id="path34"
       d="m 760.47865,471.72401 -1.92667,-0.53867 3.036,-10.87066 1.928,0.53866 -3.03733,10.87067"
       style="fill:#1f8478;fill-opacity:1;fill-rule:nonzero;stroke:none;stroke-width:0.133333" />
    <path
       id="path35"
       d="m 784.42131,478.41201 -1.92666,-0.53867 2.996,-10.72667 1.92666,0.53867 -2.996,10.72667"
       style="fill:#1f8478;fill-opacity:1;fill-rule:nonzero;stroke:none;stroke-width:0.133333" />
    <path
       id="path36"
       d="m 808.36398,485.09867 -1.92667,-0.54 2.956,-10.58133 1.92667,0.53867 -2.956,10.58266"
       style="fill:#1f8478;fill-opacity:1;fill-rule:nonzero;stroke:none;stroke-width:0.133333" />
    <path
       id="path37"
       d="m 832.30665,491.78534 -1.92667,-0.53867 2.916,-10.43866 1.92667,0.53866 -2.916,10.43867"
       style="fill:#b375db;fill-opacity:1;fill-rule:nonzero;stroke:none;stroke-width:0.133333" />
    <path
       id="path38"
       d="m 856.24931,498.47334 -1.92666,-0.53867 2.87466,-10.29466 1.928,0.53866 -2.876,10.29467"
       style="fill:#b375db;fill-opacity:1;fill-rule:nonzero;stroke:none;stroke-width:0.133333" />
    <path
       id="path39"
       d="m 880.19331,505.16001 -1.92667,-0.54 2.83467,-10.148 1.92667,0.53866 -2.83467,10.14934"
       style="fill:#b375db;fill-opacity:1;fill-rule:nonzero;stroke:none;stroke-width:0.133333" />
    <path
       id="path40"
       d="m 904.13598,511.84667 -1.92667,-0.53866 2.79467,-10.00534 1.92666,0.53867 -2.79466,10.00533"
       style="fill:#b375db;fill-opacity:1;fill-rule:nonzero;stroke:none;stroke-width:0.133333" />
    <path
       id="path41"
       d="m 928.07864,518.53467 -1.92666,-0.53866 2.75466,-9.86267 1.92667,0.53867 -2.75467,9.86266"
       style="fill:#b375db;fill-opacity:1;fill-rule:nonzero;stroke:none;stroke-width:0.133333" />
    <path
       id="path42"
       d="m 952.02131,525.22001 -1.92667,-0.53867 2.71334,-9.716 1.928,0.53867 -2.71467,9.716"
       style="fill:#b375db;fill-opacity:1;fill-rule:nonzero;stroke:none;stroke-width:0.133333" />
    <path
       id="path43"
       d="m 975.96531,531.90801 -1.928,-0.53867 2.67333,-9.57333 1.92667,0.53866 -2.672,9.57334"
       style="fill:#b375db;fill-opacity:1;fill-rule:nonzero;stroke:none;stroke-width:0.133333" />
    <path
       id="path44"
       d="m 999.90798,538.59481 -1.928,-0.54014 2.63332,-9.42666 1.9267,0.53866 -2.63202,9.42814"
       style="fill:#b375db;fill-opacity:1;fill-rule:nonzero;stroke:none;stroke-width:0.133333" />
    <path
       id="path45"
       d="m 1023.8506,545.28121 -1.928,-0.53854 2.5947,-9.28386 1.9267,0.53853 -2.5934,9.28387"
       style="fill:#b375db;fill-opacity:1;fill-rule:nonzero;stroke:none;stroke-width:0.133333" />
    <path
       id="path46"
       d="m 793.18665,373.38001 c -0.672,0 -1.344,-0.25333 -1.864,-0.76 l -15.396,-15.03333 c -1.05334,-1.02934 -1.07334,-2.71734 -0.0453,-3.77067 1.03067,-1.052 2.71867,-1.07333 3.772,-0.0453 l 15.396,15.03333 c 1.05334,1.02933 1.07467,2.71733 0.0453,3.772 -0.52267,0.53333 -1.216,0.804 -1.908,0.804"
       style="fill:#1f8478;fill-opacity:1;fill-rule:nonzero;stroke:none;stroke-width:0.133333" />
    <path
       id="path47"
       d="M 1032.5306,652.7 796.08131,408.65868 786.14798,380.20001 c -0.424,-1.216 -0.104,-2.568 0.82,-3.464 l 6.21867,-6.02267 6.21733,-6.02533 c 0.92533,-0.896 2.28533,-1.17333 3.488,-0.71067 l 28.12933,10.82667 236.44929,244.04133 c 9.3494,9.64946 9.1054,25.04946 -0.5426,34.39733 v 0 c -9.648,9.34952 -25.0494,9.10525 -34.3974,-0.54267"
       style="fill:#7bbfb4;fill-opacity:1;fill-rule:nonzero;stroke:none;stroke-width:0.133333" />
    <path
       id="path48"
       d="m 782.08665,371.41068 5.02666,5.18666 6.07334,-5.884 6.07333,-5.88533 -5.024,-5.18667 -12.14933,11.76934"
       style="fill:#dcefeb;fill-opacity:1;fill-rule:nonzero;stroke:none;stroke-width:0.133333" />
    <path
       id="path49"
       d="m 796.08131,408.65868 34.94,-33.85467 4.80667,4.96133 -34.79867,34.00134 -4.948,-5.108"
       style="fill:#dcefeb;fill-opacity:1;fill-rule:nonzero;stroke:none;stroke-width:0.133333" />
    <path
       id="path50"
       d="m 828.56531,405.17468 -6.30666,5.79333 c -3.784,3.47467 -3.91867,9.39733 -0.3,13.04267 l 68.71333,69.22399 c 3.50533,3.532 9.204,3.572 12.75866,0.0907 l 7.376,-7.22533 c 3.63467,-3.56 3.62267,-9.41467 -0.0253,-12.96 l -69.78533,-67.792 c -3.44133,-3.344 -8.896,-3.42 -12.43067,-0.17333"
       style="fill:#1f8478;fill-opacity:1;fill-rule:nonzero;stroke:none;stroke-width:0.133333" />
    <path
       id="path51"
       d="m 787.11331,377.26401 c -0.17466,0 -0.348,-0.068 -0.48,-0.204 l -4.124,-4.256 c -0.36533,-0.37467 -0.56,-0.87067 -0.552,-1.396 0.008,-0.52267 0.22134,-1.01333 0.59734,-1.37733 l 10.28666,-9.968 c 0.776,-0.74934 2.02,-0.72934 2.77334,0.044 l 4.12533,4.25733 c 0.25467,0.264 0.248,0.68667 -0.016,0.94267 -0.26267,0.256 -0.68533,0.24933 -0.94267,-0.016 l -4.124,-4.256 c -0.23866,-0.248 -0.63733,-0.256 -0.88933,-0.0133 l -10.28667,9.968 c -0.12133,0.11734 -0.188,0.27334 -0.19066,0.44134 -0.003,0.168 0.06,0.32533 0.176,0.44666 l 4.12533,4.256 c 0.256,0.264 0.24933,0.68667 -0.016,0.94267 -0.128,0.12533 -0.296,0.188 -0.46267,0.188"
       style="fill:#1f8478;fill-opacity:1;fill-rule:nonzero;stroke:none;stroke-width:0.133333" />
    <path
       id="path52"
       d="m 1364.2666,702.45467 c 0,0 -71.4253,-167.476 -161.476,-181.75466 0,0 -6.2373,103.91359 148.1694,188.82919 l 13.3066,-7.07453"
       style="fill:#213059;fill-opacity:1;fill-rule:nonzero;stroke:none;stroke-width:0.133333" />
    <path
       id="path53"
       d="m 1360.1733,705.96254 c -0.3733,0 -0.7467,-0.1584 -1.0133,-0.46667 l -157.3827,-183.9292 c -0.4787,-0.56 -0.4133,-1.40133 0.1453,-1.88 0.5587,-0.47466 1.4,-0.412 1.88,0.14534 l 157.384,183.93053 c 0.48,0.55986 0.4134,1.4 -0.1466,1.88013 -0.24,0.21467 -0.56,0.31987 -0.8667,0.31987"
       style="fill:#255c99;fill-opacity:1;fill-rule:nonzero;stroke:none;stroke-width:0.133333" />
    <path
       id="path54"
       d="m 1354.5733,658.36407 c 0,0 -2.7467,-182.0534 -80.6933,-229.34539 0,0 -45.0934,93.82666 65.6933,230.85476 l 15,-1.50937"
       style="fill:#255c99;fill-opacity:1;fill-rule:nonzero;stroke:none;stroke-width:0.133333" />
    <path
       id="path55"
       d="m 1349.96,660.16146 c -0.56,0 -1.08,-0.35468 -1.2534,-0.91458 l -76.092,-229.8082 c -0.232,-0.7 0.1467,-1.45334 0.8467,-1.68534 0.7,-0.23066 1.452,0.14667 1.684,0.84667 l 76.0813,229.80781 c 0.24,0.7 -0.1466,1.45364 -0.84,1.68541 -0.1466,0.0453 -0.28,0.0682 -0.4266,0.0682"
       style="fill:#213059;fill-opacity:1;fill-rule:nonzero;stroke:none;stroke-width:0.133333" />
    <path
       id="path56"
       d="m 1405.24,679.37188 c 0,0 21.1733,-174.05721 -60.44,-269.09454 0,0 -42.916,128.60133 11.12,274.05333 l 49.32,-4.95879"
       style="fill:#2178bf;fill-opacity:1;fill-rule:nonzero;stroke:none;stroke-width:0.133333" />
    <path
       id="path57"
       d="m 1379.4666,683.29587 c -0.6533,0 -1.2266,-0.49067 -1.32,-1.16413 L 1343.48,410.44668 c -0.093,-0.72934 0.4133,-1.39734 1.1466,-1.492 0.7467,-0.0813 1.4,0.424 1.4934,1.15333 l 34.68,271.68519 c 0.093,0.7308 -0.4267,1.39894 -1.16,1.49227 -0.053,0.007 -0.1067,0.0104 -0.1734,0.0104"
       style="fill:#255c99;fill-opacity:1;fill-rule:nonzero;stroke:none;stroke-width:0.133333" />
    <path
       id="path58"
       d="m 1357.2133,508.92267 c -0.3333,0 -0.68,-0.13466 -0.9333,-0.38133 l -18.5734,-18.20133 c -0.52,-0.51334 -0.5333,-1.35867 -0.013,-1.88534 0.5067,-0.52266 1.36,-0.53466 1.88,-0.0173 l 17.2,16.84667 13.68,-31.25467 c 0.2933,-0.67333 1.08,-0.98533 1.76,-0.68667 0.68,0.296 0.9867,1.08267 0.6933,1.75734 l -14.4666,33.024 c -0.1734,0.40133 -0.5334,0.69066 -0.9734,0.77333 -0.08,0.0173 -0.16,0.0253 -0.2533,0.0253"
       style="fill:#255c99;fill-opacity:1;fill-rule:nonzero;stroke:none;stroke-width:0.133333" />
    <path
       id="path59"
       d="m 1363.9066,561.29841 c -0.3333,0 -0.64,-0.11814 -0.8933,-0.33694 l -28.2667,-25.188 c -0.5466,-0.49226 -0.6,-1.33333 -0.1066,-1.8844 0.48,-0.54893 1.3333,-0.59573 1.88,-0.1088 l 26.9066,23.97027 16.92,-38.4132 c 0.2934,-0.672 1.0667,-0.97867 1.76,-0.68133 0.6667,0.296 0.9734,1.08266 0.68,1.75733 l -17.6666,40.08933 c -0.1734,0.39054 -0.52,0.6744 -0.9334,0.76667 -0.093,0.0187 -0.1866,0.0291 -0.28,0.0291"
       style="fill:#255c99;fill-opacity:1;fill-rule:nonzero;stroke:none;stroke-width:0.133333" />
    <path
       id="path60"
       d="m 1298.4013,502.98001 c -0.304,0 -0.6027,-0.104 -0.8453,-0.30267 l -21.2027,-17.36267 c -0.5693,-0.46666 -0.6547,-1.30666 -0.1867,-1.876 0.4654,-0.56933 1.3027,-0.65466 1.876,-0.18666 l 19.4667,15.94 4.7107,-24.876 c 0.136,-0.72267 0.8253,-1.2 1.5586,-1.06134 0.7227,0.136 1.1974,0.83467 1.0614,1.55867 l -5.1294,27.08133 c -0.087,0.46267 -0.412,0.844 -0.8546,1.004 -0.148,0.0547 -0.3014,0.0813 -0.4547,0.0813"
       style="fill:#213059;fill-opacity:1;fill-rule:nonzero;stroke:none;stroke-width:0.133333" />
    <path
       id="path61"
       d="m 886.29064,641.30934 c 0,0 -63.33066,-68.55987 -170.76799,-48.15053 0,0 39.724,98.34799 151.20133,91.27866 l 19.56666,-43.12813"
       style="fill:#2178bf;fill-opacity:1;fill-rule:nonzero;stroke:none;stroke-width:0.133333" />
    <path
       id="path62"
       d="m 875.66664,666.05469 c -0.18133,0 -0.36666,-0.0359 -0.54266,-0.11458 l -160.14533,-71.5641 c -0.672,-0.30147 -0.97333,-1.0896 -0.67333,-1.7624 0.30133,-0.67094 1.08666,-0.97614 1.76266,-0.6724 l 160.144,71.56295 c 0.672,0.30106 0.97466,1.08907 0.67333,1.76251 -0.22133,0.49479 -0.708,0.78802 -1.21867,0.78802"
       style="fill:#255c99;fill-opacity:1;fill-rule:nonzero;stroke:none;stroke-width:0.133333" />
    <path
       id="path63"
       d="m 745.23731,626.10934 c -0.696,0 -1.28,-0.53747 -1.32933,-1.2416 -0.0507,-0.7344 0.504,-1.37187 1.23867,-1.4224 l 33.44133,-2.29747 -14.05333,-24.4864 c -0.36667,-0.64013 -0.14534,-1.45466 0.492,-1.82133 0.64,-0.3656 1.45466,-0.14693 1.82133,0.4916 l 15.11467,26.33493 c 0.228,0.3984 0.23466,0.8864 0.0187,1.29213 -0.216,0.40627 -0.62666,0.6704 -1.084,0.70374 l -35.568,2.44533 c -0.0307,0 -0.0613,10e-4 -0.092,10e-4"
       style="fill:#255c99;fill-opacity:1;fill-rule:nonzero;stroke:none;stroke-width:0.133333" />
    <path
       id="path64"
       d="m 784.95465,649.90787 c -0.688,0 -1.26934,-0.52667 -1.328,-1.224 -0.06,-0.73333 0.48533,-1.37707 1.22,-1.43853 l 44.104,-3.6412 -16.73067,-33.64427 c -0.328,-0.65827 -0.0587,-1.45987 0.6,-1.788 0.65733,-0.3292 1.46,-0.0583 1.788,0.6016 l 17.60533,35.40253 c 0.196,0.39587 0.18534,0.86414 -0.032,1.24947 -0.21733,0.38493 -0.61066,0.63707 -1.052,0.67453 l -46.064,3.80414 c -0.0373,0.003 -0.0747,0.004 -0.11066,0.004"
       style="fill:#255c99;fill-opacity:1;fill-rule:nonzero;stroke:none;stroke-width:0.133333" />
    <path
       id="path73"
       d="m 1078.8893,482.77201 -7.3107,-6.26667 -196.59462,-40.92666 -119.33333,151.35986 0.268,8.924 176.35199,19.19733 146.61866,-132.28786"
       style="fill:#213059;fill-opacity:1;fill-rule:nonzero;stroke:none;stroke-width:0.133333" />
    <path
       id="path74"
       d="m 755.91865,595.86254 122.32133,-151.8212 200.64932,38.73067 -7.3107,-6.26667 -196.59462,-40.92666 -119.33333,151.35986 0.268,8.924"
       style="fill:#255c99;fill-opacity:1;fill-rule:nonzero;stroke:none;stroke-width:0.133333" />
    <path
       id="path75"
       d="m 1066.504,643.5984 -64.264,-119.67839 -2.95336,-0.868 c -63.88133,-18.75867 -132.68266,4.348 -172.29066,57.8652 v 0 l 32.75733,131.79319 c 0.0733,0.39227 0.16267,0.78027 0.288,1.15734 5.272,15.89626 55.92133,13.40413 113.12933,-5.56614 57.20936,-18.9724 99.31196,-47.23649 94.04136,-63.13226 -0.1814,-0.54694 -0.4214,-1.06827 -0.708,-1.57094"
       style="fill:#213059;fill-opacity:1;fill-rule:nonzero;stroke:none;stroke-width:0.133333" />
    <path
       id="path76"
       d="m 1058.2293,646.07867 c 4.5053,13.58383 -34.4787,38.7344 -87.07199,56.1744 -52.592,17.44013 -98.87867,20.56573 -103.38267,6.98187 -4.50533,-13.5844 34.47734,-38.73494 87.072,-56.17507 52.59196,-17.44013 98.87866,-20.564 103.38266,-6.9812"
       style="fill:#255c99;fill-opacity:1;fill-rule:nonzero;stroke:none;stroke-width:0.133333" />
    <path
       id="path77"
       d="m 832.78931,605.564 c -0.59866,0 -1.14266,-0.40413 -1.29333,-1.01186 l -5.79467,-23.3136 c -0.0947,-0.3864 -0.0133,-0.79587 0.22267,-1.11453 39.772,-53.73867 109.592,-77.18667 173.73866,-58.35067 l 2.95336,0.86667 c 0.3413,0.10133 0.6293,0.33466 0.7973,0.64933 l 9.7933,18.2388 c 0.3494,0.64787 0.1054,1.45733 -0.544,1.8036 -0.6493,0.35107 -1.456,0.1084 -1.8053,-0.54373 l -9.5293,-17.74534 -2.41869,-0.71066 c -62.872,-18.468 -131.296,4.388 -170.468,56.87586 l 5.64267,22.70147 c 0.17733,0.71466 -0.25733,1.4376 -0.972,1.61613 -0.108,0.0267 -0.216,0.0385 -0.32267,0.0385"
       style="fill:#255c99;fill-opacity:1;fill-rule:nonzero;stroke:none;stroke-width:0.133333" />
    <path
       id="path78"
       d="m 666.15998,519.30401 37.95334,34.47466 c 3.28933,3.92654 11.83466,2.1828 19.088,-3.8932 7.256,-6.0776 10.47066,-14.18546 7.18266,-18.1108 l -27.288,-43.41066 c -0.26,-0.532 -0.55866,-1.03867 -0.94133,-1.496 -4.668,-5.57467 -16.804,-3.09734 -27.10533,5.53066 -10.30134,8.62934 -14.86667,20.14267 -10.19734,25.716 0.38134,0.45734 0.83067,0.84 1.308,1.18934"
       style="fill:#ff4d4d;fill-opacity:1;fill-rule:nonzero;stroke:none;stroke-width:0.133333" />
    <path
       id="path79"
       d="m 704.11332,553.77867 c -3.288,-3.9256 -0.0733,-12.03333 7.18266,-18.10933 7.25334,-6.076 15.79867,-7.82 19.088,-3.89467 3.288,3.92534 0.0733,12.0332 -7.18266,18.1108 -7.25334,6.076 -15.79867,7.81974 -19.088,3.8932"
       style="fill:#831848;fill-opacity:1;fill-rule:nonzero;stroke:none;stroke-width:0.133333" />
    <path
       id="path80"
       d="m 844.74265,636.97867 c -50.204,0 -125.58133,-88.82293 -129.024,-92.91466 -0.71067,-0.8452 -0.60267,-2.10667 0.24267,-2.81707 0.84533,-0.7136 2.10666,-0.6016 2.81733,0.24213 0.896,1.06307 90.104,106.25627 136.632,89.75467 6.75333,-2.3932 11.09333,-6.72654 13.26799,-13.2464 10.312,-30.92387 -31.97599,-98.184 -45.18133,-118.06267 -1.17066,-1.76133 -1.27733,-4.012 -0.27866,-5.87466 1,-1.86534 2.93866,-3.02534 5.05866,-3.02534 1.104,0 2,0.896 2,2 0,1.104 -0.896,2 -2,2 -0.94133,0 -1.38666,0.64 -1.53466,0.91467 -0.14534,0.27333 -0.43067,0.99333 0.0853,1.77067 13.46133,20.26133 56.52933,88.89973 45.644,121.54399 -2.55334,7.6584 -7.844,12.95734 -15.72533,15.75054 -3.784,1.3412 -7.81067,1.96413 -12.004,1.96413"
       style="fill:#f5bc54;fill-opacity:1;fill-rule:nonzero;stroke:none;stroke-width:0.133333" />
    <path
       id="path81"
       d="m 1002.7146,516.50267 72.1494,222.74426 c 2.5093,7.74374 10.8226,11.9864 18.5653,9.47707 l 11.0693,-3.58653 -76.524,-236.14813 -25.26,7.51333"
       style="fill:#831848;fill-opacity:1;fill-rule:nonzero;stroke:none;stroke-width:0.133333" />
    <path
       id="path82"
       d="m 1023.7866,557.26934 58.0467,179.13333 c 2.604,8.03746 11.2293,12.44 19.2653,9.83586 l 146.7467,-47.55213 c 14.864,-4.81706 23.0093,-20.77285 18.1933,-35.63692 l -63.6733,-196.4948 c -3.716,-11.468 -16.0267,-17.75334 -27.496,-14.036 l -166.5587,53.97199 c -4.432,1.43734 -6.8613,6.19467 -5.4253,10.628 v 0 l 16.3827,-5.308 11.16,34.43627 -1.216,0.39427 c -4.4334,1.43586 -6.8627,6.1948 -5.4254,10.62813"
       style="fill:#ff4d4d;fill-opacity:1;fill-rule:nonzero;stroke:none;stroke-width:0.133333" />
    <path
       id="path83"
       d="m 1266.0386,663.04948 -63.6733,-196.4948 c -3.716,-11.468 -16.0267,-17.75334 -27.496,-14.03734 l -166.5587,53.97333 c -4.4333,1.43734 -6.8613,6.19467 -5.4253,10.628 l 16.628,-4.55466 10.9147,33.68293 -1.216,0.39427 c -4.4334,1.43586 -6.8627,6.1948 -5.4254,10.62813 l 143.7187,-46.572 c 9.5147,-3.08267 19.7267,2.132 22.808,11.644 l 49.0507,151.36908 v 0 c 4.4906,13.85625 -3.1027,28.72972 -16.9587,33.22025 l 25.44,-8.24427 c 14.864,-4.81706 23.0093,-20.77285 18.1933,-35.63692"
       style="fill:#831848;fill-opacity:1;fill-rule:nonzero;stroke:none;stroke-width:0.133333" />
    <path
       id="path84"
       d="m 1186.7106,495.60534 -156.2826,50.6416 -11.16,-34.43627 156.2826,-50.64399 c 7.424,-2.40534 15.3947,1.66266 17.8,9.08799 l 2.448,7.55067 c 2.404,7.424 -1.664,15.39333 -9.088,17.8"
       style="fill:#ffffff;fill-opacity:1;fill-rule:nonzero;stroke:none;stroke-width:0.133333" />
    <path
       id="path85"
       d="m 1022.3533,522.66267 c -0.5627,0 -1.0867,-0.35733 -1.2693,-0.92133 -0.2267,-0.7 0.1573,-1.45333 0.8573,-1.68 l 159.2467,-51.604 c 0.7053,-0.22667 1.4533,0.15733 1.68,0.85733 0.2266,0.7 -0.156,1.45334 -0.856,1.68 l -159.248,51.604 c -0.136,0.044 -0.276,0.064 -0.4107,0.064"
       style="fill:#7bbfb4;fill-opacity:1;fill-rule:nonzero;stroke:none;stroke-width:0.133333" />
    <path
       id="path86"
       d="m 1101.996,511.71467 c -0.5627,0 -1.0867,-0.35866 -1.268,-0.92266 -0.2267,-0.7 0.156,-1.45334 0.856,-1.68 l 76.4186,-24.76267 c 0.7067,-0.228 1.4534,0.15733 1.68,0.85733 0.2267,0.7 -0.1573,1.45334 -0.8573,1.67867 l -76.4173,24.764 c -0.1374,0.044 -0.276,0.0653 -0.412,0.0653"
       style="fill:#7bbfb4;fill-opacity:1;fill-rule:nonzero;stroke:none;stroke-width:0.133333" />
    <path
       id="path87"
       d="m 1026.7106,536.10934 c -0.5626,0 -1.0853,-0.3572 -1.268,-0.92133 -0.2266,-0.7 0.156,-1.45307 0.856,-1.68014 l 51.016,-16.53053 c 0.7067,-0.228 1.4534,0.15733 1.68,0.856 0.2267,0.70133 -0.156,1.45333 -0.8573,1.68 l -51.0147,16.532 c -0.1373,0.0437 -0.276,0.064 -0.412,0.064"
       style="fill:#7bbfb4;fill-opacity:1;fill-rule:nonzero;stroke:none;stroke-width:0.133333" />
    <path
       id="path88"
       d="m 1065.1906,560.08801 83.9614,-27.20667 c 5.7973,-1.87867 12.0186,1.29733 13.896,7.09467 l 11.6386,35.912 c 1.8774,5.79586 -1.2986,12.0172 -7.096,13.89586 l -83.96,27.20827 c -5.796,1.8772 -12.0173,-1.29894 -13.896,-7.0948 l -11.6373,-35.91347 c -1.8787,-5.79586 1.2987,-12.0172 7.0933,-13.89586"
       style="fill:#ffffff;fill-opacity:1;fill-rule:nonzero;stroke:none;stroke-width:0.133333" />
    <path
       id="path89"
       d="m 1030.2986,547.18641 c -0.5626,0 -1.0866,-0.3572 -1.2693,-0.92134 L 1018,512.22134 c -0.2267,-0.7 0.156,-1.452 0.856,-1.67867 0.7053,-0.228 1.4533,0.15734 1.68,0.856 l 11.0306,34.04254 c 0.2267,0.70146 -0.1573,1.4536 -0.8573,1.68013 -0.136,0.0437 -0.276,0.0651 -0.4107,0.0651"
       style="fill:#7bbfb4;fill-opacity:1;fill-rule:nonzero;stroke:none;stroke-width:0.133333" />
    <path
       id="path90"
       d="m 1030.428,547.58027 c -0.5627,0 -1.0854,-0.35893 -1.268,-0.92146 -0.2267,-0.70147 0.156,-1.4536 0.8573,-1.68014 l 156.2813,-50.64266 c 6.7147,-2.17467 10.4054,-9.40667 8.2307,-16.11867 l -2.448,-7.552 c -1.0533,-3.252 -3.3107,-5.89866 -6.3547,-7.45333 -3.0426,-1.55333 -6.5133,-1.828 -9.764,-0.776 L 1019.68,513.07867 c -0.704,0.228 -1.4534,-0.15733 -1.68,-0.85733 -0.2267,-0.7 0.156,-1.452 0.856,-1.67867 l 156.2826,-50.64399 c 3.932,-1.276 8.1214,-0.94 11.8,0.93733 3.68,1.88 6.408,5.07733 7.68,9.00666 l 2.448,7.55067 c 2.6267,8.112 -1.8333,16.85067 -9.944,19.48 l -156.2826,50.6412 c -0.1374,0.0443 -0.276,0.0657 -0.412,0.0657"
       style="fill:#213059;fill-opacity:1;fill-rule:nonzero;stroke:none;stroke-width:0.133333" />
    <path
       id="path91"
       d="m 1081.8333,737.736 c -0.5627,0 -1.0867,-0.35733 -1.268,-0.92147 l -58.0467,-179.13426 c -0.8053,-2.48293 -0.596,-5.12973 0.592,-7.4548 1.1867,-2.32546 3.2067,-4.0484 5.6894,-4.852 l 1.2173,-0.3948 c 0.704,-0.22813 1.452,0.15734 1.6787,0.85627 0.228,0.70107 -0.156,1.45307 -0.856,1.6796 l -1.216,0.3948 c -1.8067,0.58547 -3.276,1.83853 -4.1387,3.5292 -0.8627,1.6896 -1.016,3.6136 -0.4307,5.4188 l 58.0467,179.13479 c 0.2267,0.7 -0.156,1.4516 -0.8573,1.67867 -0.136,0.0453 -0.276,0.0652 -0.4107,0.0652"
       style="fill:#213059;fill-opacity:1;fill-rule:nonzero;stroke:none;stroke-width:0.133333" />
    <path
       id="path92"
       d="m 975.84131,606.23067 37.29729,137.36413 c 1.3014,4.788 6.2374,7.6156 11.0254,6.3156 l 6.8453,-1.85827 -39.65332,-146.03333 -15.51467,4.21187"
       style="fill:#ea8475;fill-opacity:1;fill-rule:nonzero;stroke:none;stroke-width:0.133333" />
    <path
       id="path93"
       d="m 987.38664,631.29214 30.07866,110.77453 c 1.3493,4.9708 6.472,7.9052 11.4427,6.55573 l 90.7466,-24.6412 c 9.1934,-2.49573 14.6214,-11.97186 12.1254,-21.164 l -32.9947,-121.51039 c -1.9267,-7.09227 -9.2373,-11.28134 -16.328,-9.35627 l -102.99999,27.9692 c -2.74133,0.7428 -4.36133,3.57093 -3.616,6.31093 v 0 l 10.13067,-2.75093 5.78266,21.29626 -0.752,0.20374 c -2.74133,0.74426 -4.36133,3.5708 -3.616,6.3124"
       style="fill:#f5bc54;fill-opacity:1;fill-rule:nonzero;stroke:none;stroke-width:0.133333" />
    <path
       id="path94"
       d="m 1131.78,702.8172 -32.9947,-121.51039 c -1.9267,-7.09227 -9.2373,-11.28134 -16.328,-9.35627 l -102.99999,27.9692 c -2.74133,0.7428 -4.36133,3.57093 -3.616,6.31093 l 10.13067,-2.75093 5.78266,21.29626 -0.752,0.20374 c -2.74133,0.74426 -4.36133,3.5708 -3.616,6.3124 l 88.87466,-24.13227 c 5.884,-1.5984 11.9493,1.87613 13.5467,7.75987 l 25.4173,93.60573 v 0 c 2.3267,8.56933 -2.7347,17.40107 -11.304,19.7276 l 15.7333,-4.27187 c 9.1934,-2.49573 14.6214,-11.97186 12.1254,-21.164"
       style="fill:#f5bc54;fill-opacity:1;fill-rule:nonzero;stroke:none;stroke-width:0.133333" />
    <path
       id="path95"
       d="m 1088.4,598.53334 -96.64536,26.24266 -5.78266,-21.29626 96.64532,-26.24227 c 4.5907,-1.24533 9.324,1.4652 10.5707,6.05574 l 1.268,4.66933 c 1.2453,4.59053 -1.4654,9.32387 -6.056,10.5708"
       style="fill:#ffffff;fill-opacity:1;fill-rule:nonzero;stroke:none;stroke-width:0.133333" />
    <path
       id="path96"
       d="m 987.56931,610.7 c -0.58667,0 -1.124,-0.39066 -1.28533,-0.98386 -0.19334,-0.71094 0.22666,-1.44267 0.93733,-1.63587 l 98.47729,-26.74013 c 0.7014,-0.19747 1.4414,0.22653 1.636,0.93693 0.192,0.71094 -0.2266,1.44267 -0.9373,1.63654 l -98.47866,26.73946 c -0.116,0.0324 -0.23333,0.0469 -0.34933,0.0469"
       style="fill:#7bbfb4;fill-opacity:1;fill-rule:nonzero;stroke:none;stroke-width:0.133333" />
    <path
       id="path97"
       d="m 1036.384,606.37454 c -0.5854,0 -1.124,-0.39067 -1.2854,-0.98547 -0.192,-0.7088 0.2267,-1.44213 0.9374,-1.6344 l 47.2573,-12.83226 c 0.7013,-0.1984 1.4413,0.22706 1.6347,0.93746 0.1933,0.70947 -0.2267,1.4428 -0.9374,1.636 l -47.256,12.83227 c -0.116,0.0317 -0.2346,0.0464 -0.3506,0.0464"
       style="fill:#7bbfb4;fill-opacity:1;fill-rule:nonzero;stroke:none;stroke-width:0.133333" />
    <path
       id="path98"
       d="m 989.82798,619.01614 c -0.58534,0 -1.124,-0.39067 -1.28534,-0.9844 -0.192,-0.70934 0.22667,-1.44267 0.93734,-1.63587 l 31.54662,-8.56667 c 0.704,-0.19853 1.4414,0.22654 1.636,0.93854 0.192,0.70933 -0.2266,1.44266 -0.9373,1.63493 l -31.54666,8.56667 c -0.116,0.0323 -0.23466,0.0468 -0.35066,0.0468"
       style="fill:#7bbfb4;fill-opacity:1;fill-rule:nonzero;stroke:none;stroke-width:0.133333" />
    <path
       id="path99"
       d="m 1012.5146,634.224 51.9214,-14.09746 c 3.5853,-0.97347 7.2786,1.14426 8.252,4.72813 l 6.0306,22.20787 c 0.9734,3.58533 -1.1426,7.27861 -4.728,8.25361 l -51.92,14.0974 c -3.5853,0.97291 -7.28,-1.14271 -8.2533,-4.72813 l -6.0307,-22.20835 c -0.9733,-3.58493 1.144,-7.27867 4.728,-8.25307"
       style="fill:#ffffff;fill-opacity:1;fill-rule:nonzero;stroke:none;stroke-width:0.133333" />
    <path
       id="path100"
       d="m 1017.4653,743.4 c -0.5867,0 -1.124,-0.39067 -1.2853,-0.98387 L 986.09998,631.6412 c -0.936,-3.44533 1.10666,-7.012 4.552,-7.948 l 0.756,-0.20413 c 0.71066,-0.19067 1.44266,0.22973 1.63466,0.94013 0.192,0.71094 -0.22933,1.44267 -0.94,1.6348 l -0.752,0.20374 c -2.02666,0.54946 -3.228,2.6468 -2.67733,4.67493 L 1018.752,741.7188 c 0.1933,0.70933 -0.2267,1.44267 -0.9374,1.63427 -0.116,0.0324 -0.2346,0.0469 -0.3493,0.0469"
       style="fill:#ea8475;fill-opacity:1;fill-rule:nonzero;stroke:none;stroke-width:0.133333" />
    <path
       id="path101"
       d="m 1112.3893,699.4188 c -0.5867,0 -1.124,-0.39066 -1.2853,-0.9844 l -22.5827,-83.16506 c -0.192,-0.71054 0.2267,-1.4428 0.9387,-1.636 0.7013,-0.19894 1.4413,0.22653 1.6346,0.93746 l 22.5827,83.1652 c 0.192,0.70934 -0.2267,1.44267 -0.9373,1.63587 -0.116,0.0323 -0.2347,0.0469 -0.3507,0.0469"
       style="fill:#ea8475;fill-opacity:1;fill-rule:nonzero;stroke:none;stroke-width:0.133333" />
    <path
       id="path102"
       d="m 991.64264,625.70414 c -0.58533,0 -1.12266,-0.39107 -1.28533,-0.98534 l -5.67067,-20.8896 c -0.19333,-0.7104 0.22534,-1.44373 0.93734,-1.636 0.71066,-0.19733 1.44266,0.22654 1.63466,0.93747 l 5.672,20.89067 c 0.19334,0.70933 -0.22666,1.44266 -0.93733,1.636 -0.11733,0.0317 -0.23467,0.0468 -0.35067,0.0468"
       style="fill:#7bbfb4;fill-opacity:1;fill-rule:nonzero;stroke:none;stroke-width:0.133333" />
    <path
       id="path103"
       d="m 991.75331,626.10934 c -0.58533,0 -1.12267,-0.39054 -1.28533,-0.98387 -0.192,-0.70933 0.22666,-1.44267 0.93866,-1.6348 l 96.64396,-26.24373 c 1.876,-0.50947 3.4427,-1.7204 4.4094,-3.4084 0.9666,-1.6864 1.2186,-3.64947 0.7093,-5.52653 l -1.268,-4.66934 c -0.5093,-1.876 -1.72,-3.44266 -3.408,-4.40933 -1.688,-0.96667 -3.6467,-1.21613 -5.528,-0.70933 l -96.64399,26.24266 c -0.7,0.1948 -1.44267,-0.22653 -1.63467,-0.93747 -0.19333,-0.7104 0.22534,-1.44373 0.93734,-1.636 l 96.64402,-26.24266 c 2.564,-0.69747 5.2466,-0.35053 7.5506,0.9692 2.3067,1.3204 3.96,3.46147 4.6547,6.024 l 1.2693,4.66987 c 0.696,2.56346 0.3507,5.24626 -0.9693,7.5504 -1.32,2.3068 -3.46,3.96 -6.0253,4.65573 l -96.64402,26.2428 c -0.116,0.0333 -0.23467,0.0468 -0.35067,0.0468"
       style="fill:#7bbfb4;fill-opacity:1;fill-rule:nonzero;stroke:none;stroke-width:0.133333" />
    <path
       id="path104"
       d="m 1251.2106,519.00934 c 0,0 -34.1373,19.1652 -44.5933,25.32813 -11.2267,6.61827 -12.64,15.2464 -10.0053,27.70787 3.2946,15.58387 16.816,38.076 29.6853,33.1 12.8693,-4.976 2.6467,-31.65627 2.6467,-31.65627 l 38.492,-22.55573 -16.2254,-31.924"
       style="fill:#ffddbb;fill-opacity:1;fill-rule:nonzero;stroke:none;stroke-width:0.133333" />
    <path
       id="path105"
       d="m 1373.04,596.57187 -17.7867,-80.83453 c -1.5867,-7.25067 -5.5067,-13.78667 -11.1467,-18.61867 l -58.264,-49.94266 c -5.636,-4.82933 -12.496,-8.00667 -19.824,-9.17867 l -201.52,-32.224 c 0,0 -9.368,24.604 22.092,36.28934 31.46,11.68666 142.5534,39.41866 142.5534,39.41866 l 2.788,50.764 c 0,0 -11.6387,39.93493 6.5786,71.63066 l 0.5054,41.42134 134.024,-48.72547"
       style="fill:#ffddbb;fill-opacity:1;fill-rule:nonzero;stroke:none;stroke-width:0.133333" />
    <path
       id="path106"
       d="m 1234.312,256.68135 -134.1214,-29.344 c -4.0106,-0.87734 -8.004,-0.24534 -11.396,1.51066 l -0.012,-0.003 -7.704,3.604 0.01,0.0133 c -4.7413,2.00667 -8.5133,6.12533 -9.8533,11.48667 l -47.836,191.40666 c -2.3187,9.27333 3.4906,18.62933 12.8306,20.66533 l 148.7494,32.42667 c 1.9093,0.41733 3.7986,0.17333 5.4493,-0.56267 v 0.005 l 8.0466,-3.84 v -0.004 c 2.9866,-0.97866 5.3626,-3.52133 5.9426,-6.85066 l 36.6827,-210.40666 c 0.8093,-4.644 -2.184,-9.1 -6.7893,-10.108"
       style="fill:#213059;fill-opacity:1;fill-rule:nonzero;stroke:none;stroke-width:0.133333" />
    <path
       id="path107"
       d="m 1040.076,398.42401 120.8746,-184.28933 c 1.3387,-2.04267 3.58,-3.31067 6.0187,-3.40933 l 1.716,-0.0693 -0.432,-0.87333 c -1.1813,-2.40133 -1.0067,-5.24933 0.4627,-7.488 l 36.3293,-55.38933 c 2.9427,-4.48933 8.9573,-5.76 13.4667,-2.848 l 96.9,62.596 c 4.548,2.936 5.8373,9.00933 2.8813,13.54133 l -36.5493,55.996 c -1.2227,1.87467 -3.2174,3.11067 -5.44,3.37467 l -1.728,0.20666 0.4533,1.28534 c 0.7813,2.22 0.4867,4.676 -0.8,6.64533 L 1152.472,474.24667 c -2.9854,4.57334 -9.1387,5.80934 -13.66,2.74534 l -96.0507,-65.128 c -4.4147,-2.99333 -5.6107,-8.97867 -2.6853,-13.44"
       style="fill:#ffffff;fill-opacity:1;fill-rule:nonzero;stroke:none;stroke-width:0.133333" />
    <path
       id="path108"
       d="m 1218.512,144.05735 c -4.5094,-2.912 -10.524,-1.64133 -13.4667,2.848 l -36.3293,55.38933 c -1.4694,2.23867 -1.644,5.08667 -0.4627,7.488 l 0.432,0.87333 -1.716,0.0693 c -2.4387,0.0987 -4.68,1.36666 -6.0187,3.40933 L 1040.076,398.42401 c -2.9254,4.46133 -1.7294,10.44667 2.6853,13.44 l 15.288,10.36533 v 0 l 175.3213,-268.57332 -14.8586,-9.59867"
       style="fill:#f5bc54;fill-opacity:1;fill-rule:nonzero;stroke:none;stroke-width:0.133333" />
    <path
       id="path109"
       d="m 1199.94,223.42801 c -0.3734,0 -0.752,-0.104 -1.088,-0.32266 -0.9267,-0.60267 -1.1894,-1.84134 -0.588,-2.768 l 27.9506,-42.99733 c 0.6014,-0.928 1.844,-1.188 2.7667,-0.588 0.9267,0.60266 1.1893,1.84133 0.588,2.768 l -27.9507,42.99733 c -0.3826,0.58933 -1.0253,0.91066 -1.6786,0.91066"
       style="fill:#7bbfb4;fill-opacity:1;fill-rule:nonzero;stroke:none;stroke-width:0.133333" />
    <path
       id="path110"
       d="m 1206.8466,228.04001 c -0.5,0 -1.0066,-0.14 -1.456,-0.43466 -1.2333,-0.80534 -1.58,-2.45867 -0.7733,-3.692 l 34.0893,-52.168 c 0.8054,-1.232 2.4614,-1.57867 3.6907,-0.77467 1.2333,0.80667 1.5787,2.45867 0.7733,3.692 l -34.0906,52.16933 c -0.5094,0.78267 -1.364,1.208 -2.2334,1.208"
       style="fill:#1f8478;fill-opacity:1;fill-rule:nonzero;stroke:none;stroke-width:0.133333" />
    <path
       id="path111"
       d="m 1217.1173,233.80935 c -0.3747,0 -0.752,-0.104 -1.088,-0.32267 -0.9267,-0.60133 -1.1893,-1.84 -0.588,-2.76667 l 29.2253,-45.02799 c 0.6014,-0.928 1.8427,-1.188 2.7654,-0.588 0.9266,0.60133 1.1906,1.83866 0.5893,2.76533 l -29.2253,45.028 c -0.384,0.59066 -1.0254,0.912 -1.6787,0.912"
       style="fill:#7bbfb4;fill-opacity:1;fill-rule:nonzero;stroke:none;stroke-width:0.133333" />
    <path
       id="path112"
       d="m 1224.788,238.89468 c -0.3747,0 -0.7507,-0.104 -1.0867,-0.32133 -0.9267,-0.60134 -1.1907,-1.84 -0.5907,-2.76667 l 29.3427,-45.284 c 0.6013,-0.92933 1.8413,-1.19333 2.7653,-0.592 0.9267,0.6 1.1907,1.84 0.5907,2.76534 l -29.3427,45.28533 c -0.3826,0.592 -1.024,0.91333 -1.6786,0.91333"
       style="fill:#7bbfb4;fill-opacity:1;fill-rule:nonzero;stroke:none;stroke-width:0.133333" />
    <path
       id="path113"
       d="m 1241.1386,249.34801 c -0.504,0 -1.0133,-0.14266 -1.4653,-0.44133 -1.2293,-0.812 -1.568,-2.46667 -0.7573,-3.69467 l 33.4106,-50.59866 c 0.812,-1.22933 2.468,-1.568 3.6947,-0.756 1.228,0.81067 1.5667,2.46533 0.756,3.69467 l -33.4107,50.59866 c -0.512,0.776 -1.3613,1.19733 -2.228,1.19733"
       style="fill:#1f8478;fill-opacity:1;fill-rule:nonzero;stroke:none;stroke-width:0.133333" />
    <path
       id="path114"
       d="m 1268.3333,265.62268 36.532,-55.62667 9.18,5.97867 -36.2053,55.60133 -9.5067,-5.95333"
       style="fill:#1f8478;fill-opacity:1;fill-rule:nonzero;stroke:none;stroke-width:0.133333" />
    <path
       id="path115"
       d="m 1177.616,217.82001 c -0.2507,0 -0.5027,-0.0707 -0.728,-0.21733 l -8.932,-5.82933 c -0.616,-0.40267 -0.7907,-1.22934 -0.388,-1.84534 0.404,-0.61733 1.2293,-0.78933 1.8453,-0.388 l 8.9333,5.82934 c 0.616,0.40266 0.7894,1.22933 0.388,1.84533 -0.2573,0.392 -0.684,0.60533 -1.1186,0.60533 z m 17.864,11.66 c -0.2494,0 -0.5027,-0.0707 -0.728,-0.21733 l -8.932,-5.82933 c -0.616,-0.40267 -0.7907,-1.22934 -0.388,-1.84534 0.4053,-0.61733 1.2306,-0.78933 1.8466,-0.388 l 8.932,5.82934 c 0.616,0.40266 0.7907,1.22933 0.388,1.84533 -0.256,0.392 -0.684,0.60533 -1.1186,0.60533 z m 17.8653,11.66 c -0.2507,0 -0.5027,-0.0707 -0.728,-0.21733 l -8.932,-5.82933 c -0.616,-0.40267 -0.7907,-1.22934 -0.388,-1.84534 0.404,-0.616 1.2293,-0.788 1.8453,-0.388 l 8.9334,5.83067 c 0.6146,0.40133 0.7893,1.228 0.388,1.844 -0.2574,0.392 -0.684,0.60533 -1.1187,0.60533 z m 17.864,11.66134 c -0.2493,0 -0.5027,-0.0707 -0.728,-0.21734 l -8.932,-5.83066 c -0.616,-0.40267 -0.7907,-1.22934 -0.3867,-1.84534 0.4027,-0.616 1.2294,-0.78933 1.8454,-0.388 l 8.932,5.83067 c 0.616,0.40267 0.7906,1.228 0.3866,1.84533 -0.2546,0.392 -0.6826,0.60534 -1.1173,0.60534 z m 17.8667,11.66 c -0.2507,0 -0.5027,-0.0707 -0.728,-0.21734 l -8.9334,-5.83066 c -0.616,-0.40134 -0.7893,-1.228 -0.388,-1.844 0.4054,-0.61734 1.2307,-0.78934 1.8467,-0.388 l 8.932,5.82933 c 0.616,0.40267 0.7907,1.22933 0.388,1.84533 -0.256,0.392 -0.6827,0.60534 -1.1173,0.60534 z m 17.864,11.66 c -0.2507,0 -0.5027,-0.0707 -0.728,-0.21734 l -8.932,-5.82933 c -0.616,-0.40267 -0.7907,-1.22933 -0.388,-1.84533 0.4053,-0.61734 1.2306,-0.788 1.8466,-0.388 l 8.932,5.82933 c 0.616,0.40267 0.7907,1.22933 0.388,1.84533 -0.2573,0.392 -0.684,0.60534 -1.1186,0.60534"
       style="fill:#213059;fill-opacity:1;fill-rule:nonzero;stroke:none;stroke-width:0.133333" />
    <path
       id="path116"
       d="m 1214.132,154.44002 -0.688,-0.44667 c -0.3587,-0.23467 -0.84,-0.13333 -1.0747,0.22533 -0.2013,0.312 -0.1533,0.71467 0.097,0.96934 l -1.1453,0.51333 -2.276,-1.484 c -0.516,-0.336 -1.0893,-0.58 -1.6947,-0.69067 -1.676,-0.30933 -2.7253,1.30267 -1.768,2.71067 0.3467,0.508 0.8014,0.936 1.3174,1.272 l 2.276,1.484 -0.01,1.25467 c -0.3334,-0.12667 -0.7214,-0.009 -0.924,0.30266 -0.2334,0.35867 -0.132,0.84 0.2253,1.07334 l 0.688,0.448 -0.04,6.672 1.048,0.68266 c 0.364,0.23734 0.856,0.0587 0.9813,-0.35733 l 2.2707,-7.54 4.416,2.64133 0.9267,3.44534 0.6,0.39066 c 0.3173,0.20667 0.74,0.0173 0.796,-0.356 l 0.532,-3.5 2.988,-1.89866 c 0.3173,-0.20267 0.3213,-0.66667 0.01,-0.872 l -0.6027,-0.392 -3.524,0.54266 -4.2,-2.97333 5.9814,-5.12133 c 0.3293,-0.284 0.296,-0.80534 -0.069,-1.04267 l -1.048,-0.68267 -6.0866,2.72934"
       style="fill:#ffffff;fill-opacity:1;fill-rule:nonzero;stroke:none;stroke-width:0.133333" />
    <path
       id="path117"
       d="m 1181.544,209.19201 c -0.504,0 -1.0147,-0.14266 -1.4667,-0.44133 -1.228,-0.81067 -1.5667,-2.46533 -0.756,-3.69467 l 21.5573,-32.65066 c 0.812,-1.228 2.4667,-1.56667 3.6947,-0.756 1.228,0.812 1.5667,2.46533 0.756,3.69467 l -21.5573,32.65066 c -0.5134,0.77733 -1.3627,1.19733 -2.228,1.19733"
       style="fill:#ffffff;fill-opacity:1;fill-rule:nonzero;stroke:none;stroke-width:0.133333" />
    <path
       id="path118"
       d="m 1152.4706,475.58001 c -0.2493,0 -0.5026,-0.0707 -0.728,-0.216 -0.6146,-0.404 -0.7893,-1.22934 -0.388,-1.84667 l 121.7587,-186.54266 c 1.052,-1.612 1.2973,-3.65867 0.6587,-5.47467 l -0.4534,-1.28533 c -0.1333,-0.38267 -0.088,-0.804 0.1267,-1.148 0.2133,-0.344 0.572,-0.57067 0.9733,-0.62 l 1.728,-0.20533 c 1.8374,-0.21734 3.4707,-1.232 4.4827,-2.78 l 36.5467,-55.99467 c 1.2346,-1.89333 1.6573,-4.15333 1.1853,-6.364 -0.4693,-2.21067 -1.7747,-4.104 -3.6733,-5.32933 l -82.0414,-52.99733 c -0.6186,-0.39867 -0.7946,-1.22534 -0.396,-1.84267 0.4,-0.61867 1.2227,-0.79733 1.844,-0.39733 l 82.0414,52.99733 c 2.4986,1.61333 4.216,4.104 4.8346,7.01466 0.6187,2.90934 0.064,5.884 -1.5613,8.37467 l -36.548,55.996 c -1.444,2.212 -3.7773,3.65867 -6.3987,3.97067 l -0.08,0.009 c 0.7907,2.52133 0.412,5.316 -1.0373,7.53333 l -121.756,186.544 c -0.256,0.392 -0.6827,0.604 -1.1187,0.604"
       style="fill:#1f8478;fill-opacity:1;fill-rule:nonzero;stroke:none;stroke-width:0.133333" />
    <path
       id="path119"
       d="m 1245.928,474.46801 c -1.0534,0 -2.012,-0.62134 -2.4387,-1.58934 -0.44,-0.99466 -0.232,-2.15733 0.528,-2.93733 l 13.2493,-13.62 c 1.028,-1.05733 2.716,-1.07733 3.7707,-0.052 1.056,1.02667 1.08,2.71467 0.052,3.77067 l -8.6373,8.88 11.9973,-0.392 c 1.4947,-0.08 2.704,1.10666 2.752,2.57866 0.048,1.472 -1.1067,2.704 -2.5773,2.752 l -18.608,0.608 c -0.031,10e-4 -0.059,10e-4 -0.088,10e-4"
       style="fill:#ea8475;fill-opacity:1;fill-rule:nonzero;stroke:none;stroke-width:0.133333" />
    <path
       id="path120"
       d="m 1225.7453,533.31067 c 5.6627,16.8612 2.8147,36.068 -5.488,37.81067 -8.3013,1.74373 -17.4587,-7.4812 -21.24,-19.43587 -3.7813,-11.95626 -7.176,-34.6428 2.42,-42.6708 11.86,-9.92266 44.9093,-10.15466 44.9093,-10.15466 l 4.864,20.14933 -25.4653,14.30133"
       style="fill:#ffddbb;fill-opacity:1;fill-rule:nonzero;stroke:none;stroke-width:0.133333" />
    <path
       id="path121"
       d="m 1218.2733,573.99214 c -7.9853,0.001 -16.4587,-7.51507 -20.896,-18.94 -0.5333,-1.37187 0.1467,-2.9172 1.5213,-3.44947 1.364,-0.5376 2.916,0.1452 3.4507,1.51974 3.8973,10.03493 11.376,16.64693 17.36,15.3896 1.5787,-0.33174 2.7467,-1.86147 3.448,-3.088 3.2267,-5.636 4.344,-18.50787 0.061,-31.26414 -0.396,-1.17986 0.076,-2.47586 1.136,-3.12386 l 4.3214,-2.64267 c 1.256,-0.76933 2.8973,-0.37333 3.6653,0.884 0.768,1.25733 0.372,2.89733 -0.884,3.66533 l -2.544,1.55574 c 3.5893,12.22706 3.176,26.05626 -1.1267,33.57506 -1.7853,3.1172 -4.1986,5.0744 -6.9813,5.6572 -0.8347,0.17614 -1.68,0.26147 -2.532,0.26147"
       style="fill:#ea8475;fill-opacity:1;fill-rule:nonzero;stroke:none;stroke-width:0.133333" />
    <path
       id="path122"
       d="m 1239.0146,647.964 c -1.4573,0 -2.648,-1.17333 -2.6653,-2.6348 l -0.496,-40.73333 c -18.0867,-32.19746 -6.9213,-70.97706 -6.4347,-72.62253 0.42,-1.41067 1.896,-2.22133 3.3134,-1.79867 1.412,0.41734 2.2186,1.9 1.8013,3.31174 -0.1133,0.3844 -11.1267,38.76053 6.2893,69.06053 0.2267,0.39426 0.3494,0.83946 0.3547,1.29573 l 0.5053,41.4224 c 0.017,1.4724 -1.1613,2.68027 -2.6346,2.69893 -0.012,0 -0.023,0 -0.033,0"
       style="fill:#ea8475;fill-opacity:1;fill-rule:nonzero;stroke:none;stroke-width:0.133333" />
    <path
       id="path123"
       d="m 1426.24,659.81719 -47.5467,-86.25732 c 0,0 -35.64,-9.79213 -84.9373,4.71094 -50.58,14.88133 -65.352,42.69853 -70.1094,61.31039 l 40.6014,99.19747 161.992,-78.96148"
       style="fill:#213059;fill-opacity:1;fill-rule:nonzero;stroke:none;stroke-width:0.133333" />
    <path
       id="path124"
       d="m 1236.148,673.46407 c -0.4307,0 -0.868,-0.0838 -1.2907,-0.26147 -1.6973,-0.71353 -2.4947,-2.66822 -1.7813,-4.36509 0.3333,-0.79063 8.4266,-19.59897 32.3093,-38.12137 21.8387,-16.94014 61.6653,-36.81613 127.3347,-35.20827 1.8266,0.0443 3.2933,1.5724 3.24,3.41347 -0.04,1.83853 -1.5734,3.35213 -3.4134,3.25053 -2.44,-0.0583 -4.8666,-0.088 -7.24,-0.088 -115.5706,0 -145.7866,68.63072 -146.084,69.33749 -0.536,1.27448 -1.772,2.04271 -3.0746,2.04271"
       style="fill:#f5bc54;fill-opacity:1;fill-rule:nonzero;stroke:none;stroke-width:0.133333" />
    <path
       id="path125"
       d="m 1091.2946,231.50401 134.12,29.344 c 4.6054,1.008 7.5987,5.464 6.788,10.108 l -36.6813,210.40666 c -0.86,4.93067 -5.6547,8.152 -10.5453,7.08534 l -148.7494,-32.42667 c -9.34,-2.036 -15.1493,-11.392 -12.8306,-20.66533 l 47.836,-191.40666 c 2.2226,-8.89067 11.1093,-14.40267 20.0626,-12.44534"
       style="fill:#1f8478;fill-opacity:1;fill-rule:nonzero;stroke:none;stroke-width:0.133333" />
    <path
       id="path126"
       d="m 1203.4973,436.95334 c -0.076,0 -0.152,-0.007 -0.2307,-0.0187 -0.7253,-0.12667 -1.2106,-0.81867 -1.084,-1.544 l 28.7067,-164.664 c 0.688,-3.952 -1.84,-7.71867 -5.7587,-8.576 l -134.1213,-29.344 c -0.7187,-0.15733 -1.1747,-0.868 -1.0173,-1.588 0.156,-0.72 0.8653,-1.17333 1.5866,-1.01733 l 134.1214,29.344 c 5.3186,1.164 8.752,6.27733 7.8173,11.64 l -28.708,164.66399 c -0.1133,0.64667 -0.676,1.104 -1.312,1.104"
       style="fill:#255c99;fill-opacity:1;fill-rule:nonzero;stroke:none;stroke-width:0.133333" />
    <path
       id="path127"
       d="m 1134.4026,413.30534 c 4.5907,-3.476 8.9307,-8.51733 12.7134,-14.76933 3.5146,1.964 6.6813,4.12667 9.416,6.44133 -6.54,4.45334 -14.1174,7.35734 -22.1294,8.328 z m -48.7666,-23.972 c 3.4546,-0.948 7.2373,-1.576 11.252,-1.88 0.8,7.264 2.616,13.66267 5.3173,18.748 -6.8587,-4.25333 -12.5107,-10.076 -16.5693,-16.868 z m 36.8666,-75.11466 c -4.596,3.47867 -8.9413,8.52933 -12.728,14.79333 -3.5173,-1.968 -6.688,-4.132 -9.4226,-6.45066 6.544,-4.46134 14.128,-7.372 22.1506,-8.34267 z m 48.78,23.996 c -3.4573,0.95066 -7.2453,1.58 -11.2613,1.88533 -0.8,-7.276 -2.616,-13.68666 -5.3227,-18.77733 6.8694,4.25733 12.5254,10.08933 16.584,16.892 z m -12.636,29.184 c 1.4454,-7.50667 2.0134,-14.74267 1.7894,-21.41867 4.8826,-0.368 9.4773,-1.17067 13.6266,-2.416 3.8014,8.556 5.2374,18.23867 3.6694,28.04667 z m -1.2733,5.76933 19.0867,4.21333 c -2.7094,9.564 -8.092,17.74934 -15.1507,23.91334 -3.2373,-2.872 -7.0667,-5.53067 -11.3387,-7.916 3.0174,-5.96934 5.552,-12.78134 7.4027,-20.21067 z m -30.4533,11.24533 3.78,-17.13066 20.896,4.61066 c -1.7307,6.852 -4.1267,13.20267 -6.9507,18.76134 -5.4427,-2.544 -11.4213,-4.66534 -17.7253,-6.24134 z m -6.2507,28.332 4.9773,-22.56266 c 5.74,1.444 11.1747,3.35733 16.116,5.63333 -6.256,10.18267 -13.9546,16.66533 -21.0933,16.92933 z m -0.7907,-23.83466 -4.9786,22.56133 c -6.3667,-3.24533 -10.6214,-12.36267 -12.0107,-24.23467 5.44,0.016 11.176,0.568 16.9893,1.67334 z m -15.844,-27.512 20.896,4.61066 -3.7786,17.13067 c -6.3814,-1.22267 -12.6987,-1.81333 -18.7067,-1.79733 -0.2227,-6.23067 0.276,-13 1.5893,-19.944 z m -5.7773,-1.27467 c -1.448,7.51733 -2.0147,14.764 -1.7893,21.44933 -4.8787,0.36667 -9.4694,1.16667 -13.6147,2.41067 -3.8107,-8.56267 -5.2507,-18.25333 -3.68,-28.07067 z m 1.272,-5.76933 -19.0827,-4.21067 c 2.704,-9.55733 8.08,-17.73733 15.1294,-23.89866 3.24,2.87466 7.0706,5.53733 11.3453,7.92533 -3.012,5.96266 -5.5427,12.768 -7.392,20.184 z m 30.448,-11.21467 -3.7733,17.10133 -20.896,-4.612 c 1.728,-6.84133 4.12,-13.18266 6.9373,-18.73466 5.444,2.54533 11.4267,4.668 17.732,6.24533 z m 6.26,-28.36266 -4.9867,22.59199 c -5.7426,-1.444 -11.1786,-3.35866 -16.124,-5.63599 6.2587,-10.2 13.9627,-16.68934 21.1107,-16.956 z m 0.784,23.86533 4.984,-22.592 c 6.3707,3.24933 10.628,12.37867 12.0147,24.26533 -5.444,-0.016 -11.1814,-0.56667 -16.9987,-1.67333 z m -1.2747,5.77066 c 6.384,1.22267 12.704,1.81334 18.7147,1.79734 0.2187,6.22266 -0.28,12.98133 -1.592,19.91333 l -20.896,-4.61067 z m 4.732,-35.15599 c -30.0533,-6.632 -59.9,12.424 -66.5306,42.47733 -6.632,30.05333 12.424,59.9 42.4773,66.532 30.0533,6.63066 59.9,-12.424 66.532,-42.47867 6.6307,-30.05333 -12.424,-59.9 -42.4787,-66.53066"
       style="fill:#f5bc54;fill-opacity:1;fill-rule:nonzero;stroke:none;stroke-width:0.133333" />
    <path
       id="path128"
       d="m 1298.4706,517.62267 c -0.8613,0 -1.7066,-0.416 -2.2213,-1.18533 -0.816,-1.22533 -0.4867,-2.88267 0.7387,-3.7 0.568,-0.37867 14.144,-9.26267 34.66,-7.58933 1.468,0.11866 2.5653,1.40533 2.4453,2.87333 -0.12,1.46667 -1.3987,2.57067 -2.8773,2.44133 -18.6947,-1.51333 -31.1427,6.62934 -31.2667,6.712 -0.456,0.304 -0.9693,0.448 -1.4787,0.448"
       style="fill:#ea8475;fill-opacity:1;fill-rule:nonzero;stroke:none;stroke-width:0.133333" />
    <path
       id="path129"
       d="m 1248.0546,550.08281 c 0,0 -69.3066,-76.1388 -77.9786,-86.44947 -7.9894,-9.50133 -15.2134,-35.93466 -0.1307,-47.92266 2.2747,-1.80934 5.504,-1.79734 7.7493,0.0467 l 120.7734,99.19867 -50.4134,35.1268"
       style="fill:#ffddbb;fill-opacity:1;fill-rule:nonzero;stroke:none;stroke-width:0.133333" />
    <path
       id="path130"
       d="m 1248.0546,552.74947 c -0.716,0 -1.4306,-0.28693 -1.956,-0.85466 l -57.6293,-62.19747 c -1.0013,-1.08133 -0.9373,-2.768 0.144,-3.768 1.0787,-1 2.7667,-0.94 3.768,0.14267 l 57.6293,62.1988 c 1.0014,1.07973 0.9374,2.76773 -0.144,3.76773 -0.512,0.47507 -1.164,0.71093 -1.812,0.71093"
       style="fill:#ea8475;fill-opacity:1;fill-rule:nonzero;stroke:none;stroke-width:0.133333" />
    <path
       id="path131"
       d="m 1298.4666,517.62267 c -0.596,0 -1.1946,-0.19733 -1.6906,-0.60533 l -93.2254,-76.572 c -1.1386,-0.93466 -1.304,-2.616 -0.368,-3.75333 0.9347,-1.13867 2.616,-1.30267 3.7534,-0.368 l 93.2253,76.57066 c 1.1373,0.93467 1.304,2.616 0.368,3.75467 -0.5267,0.64133 -1.2907,0.97333 -2.0627,0.97333"
       style="fill:#ea8475;fill-opacity:1;fill-rule:nonzero;stroke:none;stroke-width:0.133333" />
    <text
       id="text138"
       xml:space="preserve"
       transform="matrix(0.96900075,0.19682757,-0.30572086,0.96989162,0,0)"
       x="1129.1951"
       y="59.728264"
       style="font-size:16.1814px;fill:#f5bc54;fill-opacity:1;stroke-width:1.34845"><tspan
         id="tspan138"
         style="font-variant:normal;font-weight:900;font-size:27.404px;font-family:'Noto Sans';writing-mode:lr-tb;fill:#f5bc54;fill-opacity:1;fill-rule:nonzero;stroke:none;stroke-width:1.34845"
         x="1129.1951"
         dx="0 -2.3855903 0 0 0 0 0.012285278 -0.66065466"
         y="59.728264">PASSPORT</tspan></text>
  </g>
</svg>
